<?xml version="1.0" encoding="UTF-8"?>
<svg xmlns="http://www.w3.org/2000/svg" xmlns:xlink="http://www.w3.org/1999/xlink" width="30px" height="30px" viewBox="0 0 30 30" version="1.1">
<g id="surface1">
<path style=" stroke:none;fill-rule:evenodd;fill:rgb(32.941176%,36.862745%,88.235294%);fill-opacity:1;" d="M 15 22.5 C 19.140625 22.5 22.5 19.140625 22.5 15 C 22.5 10.859375 19.140625 7.5 15 7.5 C 10.859375 7.5 7.5 10.859375 7.5 15 C 7.5 19.140625 10.859375 22.5 15 22.5 Z M 15 20 C 17.761719 20 20 17.761719 20 15 C 20 12.238281 17.761719 10 15 10 C 12.238281 10 10 12.238281 10 15 C 10 17.761719 12.238281 20 15 20 Z M 15 20 "/>
<path style=" stroke:none;fill-rule:nonzero;fill:rgb(32.941176%,36.862745%,88.235294%);fill-opacity:1;" d="M 22.5 6.25 C 21.808594 6.25 21.25 6.808594 21.25 7.5 C 21.25 8.191406 21.808594 8.75 22.5 8.75 C 23.191406 8.75 23.75 8.191406 23.75 7.5 C 23.75 6.808594 23.191406 6.25 22.5 6.25 Z M 22.5 6.25 "/>
<path style=" stroke:none;fill-rule:evenodd;fill:rgb(32.941176%,36.862745%,88.235294%);fill-opacity:1;" d="M 2.066406 5.34375 C 1.25 6.949219 1.25 9.050781 1.25 13.25 L 1.25 16.75 C 1.25 20.949219 1.25 23.050781 2.066406 24.65625 C 2.785156 26.066406 3.933594 27.214844 5.34375 27.933594 C 6.949219 28.75 9.050781 28.75 13.25 28.75 L 16.75 28.75 C 20.949219 28.75 23.050781 28.75 24.65625 27.933594 C 26.066406 27.214844 27.214844 26.066406 27.933594 24.65625 C 28.75 23.050781 28.75 20.949219 28.75 16.75 L 28.75 13.25 C 28.75 9.050781 28.75 6.949219 27.933594 5.34375 C 27.214844 3.933594 26.066406 2.785156 24.65625 2.066406 C 23.050781 1.25 20.949219 1.25 16.75 1.25 L 13.25 1.25 C 9.050781 1.25 6.949219 1.25 5.34375 2.066406 C 3.933594 2.785156 2.785156 3.933594 2.066406 5.34375 Z M 16.75 3.75 L 13.25 3.75 C 11.109375 3.75 9.652344 3.75 8.527344 3.84375 C 7.429688 3.933594 6.871094 4.097656 6.480469 4.296875 C 5.539062 4.773438 4.773438 5.539062 4.296875 6.480469 C 4.097656 6.871094 3.933594 7.429688 3.84375 8.527344 C 3.75 9.652344 3.75 11.109375 3.75 13.25 L 3.75 16.75 C 3.75 18.890625 3.75 20.347656 3.84375 21.472656 C 3.933594 22.570312 4.097656 23.128906 4.296875 23.519531 C 4.773438 24.460938 5.539062 25.226562 6.480469 25.703125 C 6.871094 25.902344 7.429688 26.066406 8.527344 26.15625 C 9.652344 26.246094 11.109375 26.25 13.25 26.25 L 16.75 26.25 C 18.890625 26.25 20.347656 26.246094 21.472656 26.15625 C 22.570312 26.066406 23.128906 25.902344 23.519531 25.703125 C 24.460938 25.226562 25.226562 24.460938 25.703125 23.519531 C 25.902344 23.128906 26.066406 22.570312 26.15625 21.472656 C 26.246094 20.347656 26.25 18.890625 26.25 16.75 L 26.25 13.25 C 26.25 11.109375 26.246094 9.652344 26.15625 8.527344 C 26.066406 7.429688 25.902344 6.871094 25.703125 6.480469 C 25.226562 5.539062 24.460938 4.773438 23.519531 4.296875 C 23.128906 4.097656 22.570312 3.933594 21.472656 3.84375 C 20.347656 3.75 18.890625 3.75 16.75 3.75 Z M 16.75 3.75 "/>
</g>
</svg>
