<?xml version="1.0" encoding="UTF-8"?>
<svg xmlns="http://www.w3.org/2000/svg" xmlns:xlink="http://www.w3.org/1999/xlink" width="30px" height="30px" viewBox="0 0 30 30" version="1.1">
<g id="surface1">
<path style=" stroke:none;fill-rule:evenodd;fill:rgb(32.941176%,36.862745%,88.235294%);fill-opacity:1;" d="M 12.449219 20.820312 C 11.648438 24.953125 10.613281 27.929688 7.71875 30 C 6.824219 23.757812 9.03125 19.070312 10.054688 14.089844 C 8.308594 11.199219 10.265625 5.375 13.949219 6.808594 C 18.476562 8.574219 10.351562 17.140625 16.027344 18.265625 C 21.953125 19.4375 24.074219 9.328125 20.402344 5.652344 C 15.09375 0.347656 4.515625 4.847656 6.164062 12.367188 C 6.828125 15.398438 4.570312 16.261719 4.570312 16.261719 C 2.742188 15.519531 2.566406 12.953125 2.660156 10.449219 C 2.871094 4.691406 7.914062 0.660156 12.972656 0.101562 C 19.371094 -0.605469 25.378906 2.414062 26.207031 8.34375 C 27.140625 15.035156 23.441406 22.71875 16.597656 22.195312 C 14.742188 22.054688 12.449219 20.820312 12.449219 20.820312 "/>
</g>
</svg>
