<?xml version="1.0" encoding="UTF-8"?>
<svg xmlns="http://www.w3.org/2000/svg" xmlns:xlink="http://www.w3.org/1999/xlink" width="30px" height="30px" viewBox="0 0 30 30" version="1.1">
<g id="surface1">
<path style=" stroke:none;fill-rule:nonzero;fill:rgb(32.941176%,36.862745%,88.235294%);fill-opacity:1;" d="M 24.585938 10.175781 C 24.476562 9.746094 24.253906 9.355469 23.941406 9.042969 C 23.628906 8.726562 23.238281 8.5 22.8125 8.386719 C 20.21875 8.082031 17.609375 7.945312 15 7.976562 C 12.390625 7.945312 9.78125 8.082031 7.1875 8.386719 C 6.761719 8.5 6.371094 8.726562 6.058594 9.042969 C 5.746094 9.355469 5.523438 9.746094 5.414062 10.175781 C 5.128906 11.765625 4.992188 13.382812 5 15 C 4.988281 16.625 5.128906 18.25 5.414062 19.851562 C 5.53125 20.273438 5.753906 20.65625 6.066406 20.960938 C 6.378906 21.269531 6.765625 21.488281 7.1875 21.601562 C 9.78125 21.90625 12.390625 22.042969 15 22.011719 C 17.609375 22.042969 20.21875 21.90625 22.8125 21.601562 C 23.234375 21.488281 23.621094 21.269531 23.933594 20.960938 C 24.246094 20.65625 24.46875 20.273438 24.585938 19.851562 C 24.871094 18.25 25.011719 16.625 25 15 C 25.007812 13.382812 24.871094 11.765625 24.585938 10.175781 Z M 12.949219 17.988281 L 12.949219 12.039062 L 18.1875 15 L 12.949219 17.976562 Z M 12.949219 17.988281 "/>
</g>
</svg>
